<svg width="902" height="659" viewBox="0 0 902 659" fill="none" xmlns="http://www.w3.org/2000/svg">
<g id="logo_1">

<path id="square" d="M840.676 96H169.676C164.109 96.0061 158.771 98.2205 154.834 102.157C150.897 106.094 148.682 111.432 148.676 117V471C148.682 476.568 150.897 481.906 154.834 485.842C158.771 489.779 164.109 491.994 169.676 492H840.676C846.244 491.994 851.582 489.779 855.519 485.842C859.456 481.906 861.67 476.568 861.676 471V117C861.67 111.432 859.456 106.094 855.519 102.157C851.582 98.2205 846.244 96.0061 840.676 96ZM859.676 471C859.672 476.038 857.668 480.868 854.106 484.43C850.544 487.992 845.714 489.995 840.676 490H169.676C164.639 489.995 159.808 487.992 156.246 484.43C152.684 480.868 150.681 476.038 150.676 471V117C150.681 111.962 152.684 107.132 156.246 103.57C159.808 100.008 164.639 98.0046 169.676 98H840.676C845.714 98.0046 850.544 100.008 854.106 103.57C857.668 107.132 859.672 111.962 859.676 117V471Z" fill="#3F3D56"/>
<path id="horizontal_line" d="M807.676 153.37H202.676C202.411 153.37 202.157 153.264 201.969 153.077C201.782 152.889 201.676 152.635 201.676 152.37C201.676 152.104 201.782 151.85 201.969 151.663C202.157 151.475 202.411 151.37 202.676 151.37H807.676C807.941 151.37 808.196 151.475 808.383 151.663C808.571 151.85 808.676 152.104 808.676 152.37C808.676 152.635 808.571 152.889 808.383 153.077C808.196 153.264 807.941 153.37 807.676 153.37Z" fill="#3F3D56"/>
<g id="vertical_line">
<path id="Vector" d="M373.676 449C373.411 449 373.157 448.895 372.969 448.707C372.782 448.52 372.676 448.265 372.676 448V119C372.676 118.735 372.782 118.48 372.969 118.293C373.157 118.105 373.411 118 373.676 118C373.941 118 374.196 118.105 374.383 118.293C374.571 118.48 374.676 118.735 374.676 119V448C374.676 448.265 374.571 448.52 374.383 448.707C374.196 448.895 373.941 449 373.676 449Z" fill="#3F3D56"/>
<path id="Vector_2" d="M524.676 449C524.411 449 524.157 448.895 523.969 448.707C523.782 448.52 523.676 448.265 523.676 448V119C523.676 118.735 523.782 118.48 523.969 118.293C524.157 118.105 524.411 118 524.676 118C524.941 118 525.196 118.105 525.383 118.293C525.571 118.48 525.676 118.735 525.676 119V448C525.676 448.265 525.571 448.52 525.383 448.707C525.196 448.895 524.941 449 524.676 449Z" fill="#3F3D56"/>
<path id="Vector_3" d="M675.676 449C675.411 449 675.157 448.895 674.969 448.707C674.782 448.52 674.676 448.265 674.676 448V119C674.676 118.735 674.782 118.48 674.969 118.293C675.157 118.105 675.411 118 675.676 118C675.941 118 676.196 118.105 676.383 118.293C676.571 118.48 676.676 118.735 676.676 119V448C676.676 448.265 676.571 448.52 676.383 448.707C676.196 448.895 675.941 449 675.676 449Z" fill="#3F3D56"/>
</g>
<path id="2_paper" d="M328.592 379.587H292.052C290.859 379.586 289.715 379.112 288.871 378.268C288.028 377.424 287.553 376.28 287.552 375.087V331.968C287.553 330.775 288.028 329.631 288.871 328.787C289.715 327.944 290.859 327.469 292.052 327.468H328.592C329.785 327.469 330.929 327.944 331.772 328.787C332.616 329.631 333.091 330.775 333.092 331.968V375.087C333.091 376.28 332.616 377.424 331.772 378.268C330.929 379.112 329.785 379.586 328.592 379.587Z" fill="#6C63FF"/>
<g id="4_paper">
<path id="Vector_4" d="M740.592 235.587H704.052C702.859 235.586 701.715 235.112 700.872 234.268C700.028 233.424 699.553 232.28 699.552 231.087V187.968C699.553 186.775 700.028 185.631 700.872 184.787C701.715 183.944 702.859 183.469 704.052 183.468H740.592C741.785 183.469 742.929 183.944 743.773 184.787C744.616 185.631 745.091 186.775 745.092 187.968V231.087C745.091 232.28 744.616 233.424 743.773 234.268C742.929 235.112 741.785 235.586 740.592 235.587Z" fill="#6C63FF"/>
<path id="Vector_5" d="M805.592 247.587H769.052C767.859 247.586 766.715 247.112 765.872 246.268C765.028 245.424 764.553 244.28 764.552 243.087V199.968C764.553 198.775 765.028 197.631 765.872 196.787C766.715 195.944 767.859 195.469 769.052 195.468H805.592C806.785 195.469 807.929 195.944 808.773 196.787C809.616 197.631 810.091 198.775 810.092 199.968V243.087C810.091 244.28 809.616 245.424 808.773 246.268C807.929 247.112 806.785 247.586 805.592 247.587Z" fill="#E6E6E6"/>
<path id="Vector_6" d="M776.592 324.587H740.052C738.859 324.586 737.715 324.112 736.872 323.268C736.028 322.424 735.553 321.28 735.552 320.087V276.968C735.553 275.775 736.028 274.631 736.872 273.787C737.715 272.944 738.859 272.469 740.052 272.468H776.592C777.785 272.469 778.929 272.944 779.773 273.787C780.616 274.631 781.091 275.775 781.092 276.968V320.087C781.091 321.28 780.616 322.424 779.773 323.268C778.929 324.112 777.785 324.586 776.592 324.587Z" fill="#E6E6E6"/>
</g>
<g id="5_paper">
<path id="Vector_7" d="M446.592 282.587H410.052C408.859 282.586 407.715 282.112 406.872 281.268C406.028 280.424 405.553 279.28 405.552 278.087V234.968C405.553 233.775 406.028 232.631 406.872 231.787C407.715 230.944 408.859 230.469 410.052 230.468H446.592C447.785 230.469 448.929 230.944 449.773 231.787C450.616 232.631 451.091 233.775 451.092 234.968V278.087C451.091 279.28 450.616 280.424 449.773 281.268C448.929 282.112 447.785 282.586 446.592 282.587Z" fill="#6C63FF"/>
<path id="Vector_8" d="M599.592 235.587H563.052C561.859 235.586 560.715 235.112 559.872 234.268C559.028 233.424 558.553 232.28 558.552 231.087V187.968C558.553 186.775 559.028 185.631 559.872 184.787C560.715 183.944 561.859 183.469 563.052 183.468H599.592C600.785 183.469 601.929 183.944 602.773 184.787C603.616 185.631 604.091 186.775 604.092 187.968V231.087C604.091 232.28 603.616 233.424 602.773 234.268C601.929 235.112 600.785 235.586 599.592 235.587Z" fill="#6C63FF"/>
<path id="Vector_9" d="M652.592 308.587H616.052C614.859 308.586 613.715 308.112 612.872 307.268C612.028 306.424 611.553 305.28 611.552 304.087V260.968C611.553 259.775 612.028 258.631 612.872 257.787C613.715 256.944 614.859 256.469 616.052 256.468H652.592C653.785 256.469 654.929 256.944 655.773 257.787C656.616 258.631 657.091 259.775 657.092 260.968V304.087C657.091 305.28 656.616 306.424 655.773 307.268C654.929 308.112 653.785 308.586 652.592 308.587Z" fill="#FF6584"/>
<path id="Vector_10" d="M581.592 324.587H545.052C543.859 324.586 542.715 324.112 541.872 323.268C541.028 322.424 540.553 321.28 540.552 320.087V276.968C540.553 275.775 541.028 274.631 541.872 273.787C542.715 272.944 543.859 272.469 545.052 272.468H581.592C582.785 272.469 583.929 272.944 584.773 273.787C585.616 274.631 586.091 275.775 586.092 276.968V320.087C586.091 321.28 585.616 322.424 584.773 323.268C583.929 324.112 582.785 324.586 581.592 324.587Z" fill="#E6E6E6"/>
</g>
<path id="1_paper" d="M428.592 392.587H392.052C390.859 392.586 389.715 392.112 388.872 391.268C388.028 390.424 387.553 389.28 387.552 388.087V344.968C387.553 343.775 388.028 342.631 388.872 341.787C389.715 340.944 390.859 340.469 392.052 340.468H428.592C429.785 340.469 430.929 340.944 431.773 341.787C432.616 342.631 433.091 343.775 433.092 344.968V388.087C433.091 389.28 432.616 390.424 431.773 391.268C430.929 392.112 429.785 392.586 428.592 392.587Z" fill="#E6E6E6"/>
<g id="3_paper">
<path id="Vector_11" d="M276.592 256.587H240.052C238.859 256.586 237.715 256.112 236.871 255.268C236.028 254.424 235.553 253.28 235.552 252.087V208.968C235.553 207.775 236.028 206.631 236.871 205.787C237.715 204.944 238.859 204.469 240.052 204.468H276.592C277.785 204.469 278.929 204.944 279.772 205.787C280.616 206.631 281.091 207.775 281.092 208.968V252.087C281.091 253.28 280.616 254.424 279.772 255.268C278.929 256.112 277.785 256.586 276.592 256.587Z" fill="#6C63FF"/>
<path id="Vector_12" d="M243.592 335.587H207.052C205.859 335.586 204.715 335.112 203.871 334.268C203.028 333.424 202.553 332.28 202.552 331.087V287.968C202.553 286.775 203.028 285.631 203.871 284.787C204.715 283.944 205.859 283.469 207.052 283.468H243.592C244.785 283.469 245.929 283.944 246.772 284.787C247.616 285.631 248.091 286.775 248.092 287.968V331.087C248.091 332.28 247.616 333.424 246.772 334.268C245.929 335.112 244.785 335.586 243.592 335.587Z" fill="#FF6584"/>
<path id="Vector_13" d="M346.592 256.587H310.052C308.859 256.586 307.715 256.112 306.871 255.268C306.028 254.424 305.553 253.28 305.552 252.087V208.968C305.553 207.775 306.028 206.631 306.871 205.787C307.715 204.944 308.859 204.469 310.052 204.468H346.592C347.785 204.469 348.929 204.944 349.772 205.787C350.616 206.631 351.091 207.775 351.092 208.968V252.087C351.091 253.28 350.616 254.424 349.772 255.268C348.929 256.112 347.785 256.586 346.592 256.587Z" fill="#E6E6E6"/>
</g>
<g id="grey_lines">
<path id="Vector_14" d="M316.676 137H259.676C258.615 137 257.598 136.579 256.848 135.828C256.098 135.078 255.676 134.061 255.676 133C255.676 131.939 256.098 130.922 256.848 130.172C257.598 129.421 258.615 129 259.676 129H316.676C317.737 129 318.755 129.421 319.505 130.172C320.255 130.922 320.676 131.939 320.676 133C320.676 134.061 320.255 135.078 319.505 135.828C318.755 136.579 317.737 137 316.676 137Z" fill="#CCCCCC"/>
<path id="Vector_15" d="M477.676 137H420.676C419.615 137 418.598 136.579 417.848 135.828C417.098 135.078 416.676 134.061 416.676 133C416.676 131.939 417.098 130.922 417.848 130.172C418.598 129.421 419.615 129 420.676 129H477.676C478.737 129 479.755 129.421 480.505 130.172C481.255 130.922 481.676 131.939 481.676 133C481.676 134.061 481.255 135.078 480.505 135.828C479.755 136.579 478.737 137 477.676 137Z" fill="#CCCCCC"/>
<path id="Vector_16" d="M628.676 137H571.676C570.615 137 569.598 136.579 568.848 135.828C568.098 135.078 567.676 134.061 567.676 133C567.676 131.939 568.098 130.922 568.848 130.172C569.598 129.421 570.615 129 571.676 129H628.676C629.737 129 630.755 129.421 631.505 130.172C632.255 130.922 632.676 131.939 632.676 133C632.676 134.061 632.255 135.078 631.505 135.828C630.755 136.579 629.737 137 628.676 137Z" fill="#CCCCCC"/>
<path id="Vector_17" d="M769.676 137H712.676C711.615 137 710.598 136.579 709.848 135.828C709.098 135.078 708.676 134.061 708.676 133C708.676 131.939 709.098 130.922 709.848 130.172C710.598 129.421 711.615 129 712.676 129H769.676C770.737 129 771.755 129.421 772.505 130.172C773.255 130.922 773.676 131.939 773.676 133C773.676 134.061 773.255 135.078 772.505 135.828C771.755 136.579 770.737 137 769.676 137Z" fill="#CCCCCC"/>
</g>
<g id="left_person">
<path id="Vector_18" d="M189.009 429.891C187.546 429.748 186.132 429.286 184.867 428.537C183.602 427.788 182.517 426.771 181.687 425.557C180.858 424.343 180.304 422.963 180.066 421.512C179.828 420.061 179.911 418.576 180.309 417.161L154.676 393.3L168.229 389.862L193.435 410.305C195.768 411.132 197.717 412.785 198.912 414.952C200.108 417.119 200.467 419.65 199.921 422.064C199.376 424.478 197.964 426.609 195.953 428.051C193.941 429.494 191.471 430.149 189.009 429.891Z" fill="#FFB8B8"/>
<path id="Vector_19" d="M224.404 606.253H236.664L242.496 558.965H224.402L224.404 606.253Z" fill="#FFB8B8"/>
<path id="Vector_20" d="M260.308 617.636L221.777 617.637L221.777 602.75L245.421 602.749C249.369 602.749 253.155 604.317 255.947 607.109C258.739 609.901 260.308 613.687 260.308 617.636Z" fill="#2F2E41"/>
<path id="Vector_21" d="M140.345 597.401L152.193 600.555L169.994 556.359L152.509 551.705L140.345 597.401Z" fill="#FFB8B8"/>
<path id="Vector_22" d="M172.113 617.639L134.879 607.729L138.708 593.343L161.556 599.424C165.372 600.44 168.627 602.929 170.607 606.345C172.587 609.761 173.129 613.824 172.113 617.639Z" fill="#2F2E41"/>

<path id="Vector_23" d="M239.961 597.3H221.254C220.072 597.304 218.932 596.866 218.057 596.071C217.182 595.277 216.637 594.183 216.528 593.007L205.171 475.075C205.088 474.21 204.707 473.401 204.093 472.786C203.478 472.171 202.67 471.789 201.805 471.704C200.94 471.62 200.073 471.838 199.351 472.323C198.63 472.808 198.099 473.528 197.85 474.36L164.877 584.56C164.528 585.731 163.74 586.722 162.678 587.327C161.616 587.932 160.362 588.103 159.177 587.806L141.774 583.454C141.166 583.302 140.595 583.032 140.092 582.658C139.59 582.285 139.166 581.816 138.846 581.278C138.525 580.74 138.315 580.144 138.225 579.524C138.136 578.905 138.171 578.273 138.326 577.667C138.611 576.557 166.737 466.639 166.983 465.509C173.355 418.541 180.98 405.955 185.076 399.194C185.415 398.635 185.726 398.12 186.007 397.634C186.358 397.025 188.519 390.989 189.89 387.069C190.068 386.432 190.377 385.838 190.796 385.325C191.215 384.813 191.736 384.393 192.325 384.092C209.536 375.29 229.673 381.383 235.434 383.46C236.39 383.796 237.21 384.433 237.773 385.275C255.057 411.347 246.575 562.767 244.699 592.856C244.621 594.06 244.088 595.189 243.208 596.014C242.328 596.839 241.167 597.299 239.961 597.3Z" fill="#2F2E41"/>
<path id="Vector_24" d="M191.684 298.585C205.249 298.585 216.245 287.589 216.245 274.024C216.245 260.46 205.249 249.463 191.684 249.463C178.119 249.463 167.123 260.46 167.123 274.024C167.123 287.589 178.119 298.585 191.684 298.585Z" fill="#FFB8B8"/>
<path id="Vector_25" d="M189.082 391.838L188.905 391.667C188.574 391.347 155.85 359.287 160.085 329.643C161.896 316.963 172.155 308.861 189.752 306.212C196.217 305.252 202.812 306.657 208.323 310.17C213.834 313.683 217.893 319.067 219.752 325.333L237.152 384.817L189.082 391.838Z" fill="#CCCCCC"/>
<path id="Vector_26" d="M172.333 414.641L149.014 391.47C147.42 389.876 146.262 387.899 145.653 385.729C145.044 383.559 145.003 381.269 145.535 379.078L156.823 333.159C157.161 331.783 157.778 330.491 158.636 329.363C159.493 328.235 160.573 327.296 161.809 326.602C163.044 325.908 164.409 325.475 165.819 325.33C167.228 325.185 168.652 325.331 170.003 325.759C172.578 326.589 174.729 328.388 175.999 330.776C177.27 333.164 177.562 335.953 176.812 338.553L164.928 378.949L184.146 399.586L172.333 414.641Z" fill="#CCCCCC"/>
<path id="Vector_27" d="M297.404 335.562C296.788 336.897 295.886 338.08 294.763 339.028C293.64 339.977 292.322 340.667 290.903 341.052C289.484 341.436 287.998 341.504 286.55 341.252C285.101 340.999 283.726 340.432 282.521 339.591L251.391 355.726L252.767 342.02L280.364 324.941C281.912 323.009 284.114 321.713 286.554 321.297C288.994 320.88 291.501 321.374 293.602 322.683C295.702 323.992 297.25 326.026 297.95 328.4C298.651 330.774 298.457 333.322 297.404 335.562Z" fill="#FFB8B8"/>
<path id="Vector_28" d="M279.121 345.765L248.775 358.878C246.755 359.744 244.546 360.076 242.361 359.841C240.176 359.607 238.088 358.814 236.298 357.54L197.709 329.891C196.557 329.065 195.587 328.013 194.859 326.797C194.13 325.582 193.659 324.23 193.474 322.826C193.289 321.421 193.394 319.993 193.783 318.631C194.172 317.268 194.837 316 195.735 314.905C197.463 312.822 199.932 311.494 202.622 311.202C205.312 310.909 208.009 311.675 210.144 313.337L243.232 339.379L269.533 329.204L279.121 345.765Z" fill="#CCCCCC"/>
<path id="Vector_29" d="M195.756 281.895C198.786 278.098 204.447 277.894 208.609 275.39C214.061 272.109 216.314 264.779 214.558 258.664C212.801 252.549 207.62 247.783 201.679 245.503C195.739 243.224 189.13 243.196 182.863 244.298C173.533 245.938 164.347 250.293 158.657 257.867C152.966 265.441 151.518 276.533 156.675 284.479C159.046 288.132 162.705 291.146 163.651 295.396C164.893 300.976 160.979 306.357 156.787 310.242C152.01 314.669 146.53 318.376 142.345 323.365C138.16 328.355 135.369 335.171 137.279 341.397C138.879 346.614 143.535 350.457 148.64 352.381C153.746 354.306 159.306 354.584 164.761 354.691C170.059 354.794 175.685 354.666 180.147 351.809C184.924 348.752 187.475 342.951 187.664 337.282C187.852 331.614 185.958 326.06 183.419 320.988C181.906 317.965 180.146 315.035 179.141 311.808C178.135 308.58 177.961 304.917 179.571 301.945C181.264 298.82 184.688 296.936 188.175 296.251C188.357 296.215 188.548 296.183 188.749 296.155C189.741 296.026 190.697 295.698 191.558 295.189C192.42 294.681 193.169 294.002 193.761 293.196C194.353 292.39 194.775 291.471 195.002 290.497C195.23 289.523 195.257 288.512 195.082 287.527C194.685 285.313 194.719 283.193 195.756 281.895Z" fill="#2F2E41"/>
</g>
<g id="right_person">
    <path id="Vector_30" d="M576.482 447.857C577.656 446.973 578.623 445.842 579.313 444.544C580.003 443.246 580.401 441.813 580.477 440.345C580.553 438.877 580.307 437.41 579.755 436.047C579.203 434.685 578.359 433.46 577.283 432.458L591.694 399.759L573.386 402.861L562.507 433.438C560.945 435.358 560.142 437.784 560.249 440.257C560.357 442.73 561.367 445.077 563.09 446.855C564.812 448.632 567.127 449.716 569.595 449.9C572.063 450.085 574.514 449.358 576.482 447.857Z" fill="#A0616A"/>
    <path id="Vector_31" d="M523.229 607.3H510.969L505.137 560.012L523.231 560.013L523.229 607.3Z" fill="#A0616A"/>
<path id="Vector_32" d="M502.212 603.797H525.856V618.684H487.325C487.325 616.729 487.71 614.793 488.458 612.987C489.206 611.181 490.303 609.539 491.685 608.157C493.068 606.775 494.709 605.678 496.515 604.93C498.321 604.182 500.257 603.797 502.212 603.797Z" fill="#2F2E41"/>
<path id="Vector_33" d="M612.184 593.413L601.033 598.506L576.079 557.917L592.538 550.399L612.184 593.413Z" fill="#A0616A"/>
<path id="Vector_34" d="M591.612 598.958L613.118 589.135L619.303 602.676L584.256 618.685C583.443 616.906 582.989 614.985 582.919 613.032C582.85 611.078 583.165 609.13 583.848 607.298C584.531 605.466 585.568 603.787 586.901 602.356C588.233 600.925 589.834 599.771 591.612 598.958Z" fill="#2F2E41"/>
<path id="Vector_35" d="M522.448 594.831H510.736C509.6 594.827 508.507 594.396 507.675 593.622C506.843 592.849 506.334 591.79 506.247 590.658L499.86 420.099C499.813 419.445 499.909 418.789 500.141 418.177C500.374 417.564 500.737 417.009 501.206 416.552C501.675 416.094 502.239 415.745 502.857 415.527C503.475 415.31 504.133 415.231 504.786 415.294L572.521 422.488C573.618 422.595 574.638 423.102 575.387 423.912C576.136 424.722 576.562 425.778 576.583 426.881L578.002 502.117C578.01 502.525 578.089 502.929 578.236 503.31L606.021 575.363C606.236 575.919 606.338 576.513 606.321 577.109C606.304 577.706 606.168 578.293 605.922 578.836C605.677 579.38 605.325 579.869 604.888 580.275C604.451 580.682 603.938 580.997 603.378 581.203L591.51 585.576C590.479 585.956 589.345 585.946 588.321 585.547C587.298 585.148 586.455 584.389 585.952 583.412L551.82 517.043C551.634 516.682 551.498 516.298 551.416 515.901L545.585 487.807C545.416 486.992 544.962 486.265 544.305 485.754C543.648 485.244 542.831 484.984 542 485.022C541.168 485.06 540.378 485.392 539.77 485.96C539.162 486.527 538.776 487.293 538.681 488.119L526.918 590.843C526.793 591.941 526.268 592.954 525.443 593.69C524.619 594.425 523.552 594.832 522.448 594.831Z" fill="#2F2E41"/>
<path id="Vector_36" d="M528.279 286.739C541.844 286.739 552.84 275.743 552.84 262.178C552.84 248.613 541.844 237.617 528.279 237.617C514.715 237.617 503.718 248.613 503.718 262.178C503.718 275.743 514.715 286.739 528.279 286.739Z" fill="#A0616A"/>
<path id="Vector_37" d="M545.123 435.694C528.467 435.511 512.208 430.586 498.25 421.496L498.011 421.331L498.036 421.042L507.431 311.626C507.755 307.913 509.412 304.444 512.095 301.859C514.779 299.274 518.308 297.748 522.03 297.564C534.206 297.004 550.561 297.71 559.316 304.231C572.546 314.085 578.923 328.924 576.811 344.943C572.431 378.162 577.393 422.972 577.973 427.972L578.015 428.333L577.686 428.484C567.486 433.229 556.373 435.69 545.123 435.694Z" fill="#6C63FF"/>
<path id="Vector_38" d="M577.86 428.158C577.168 428.156 576.483 428.012 575.849 427.733C575.216 427.453 574.647 427.046 574.179 426.536L568.807 420.674C568.226 420.037 567.819 419.262 567.625 418.422C567.431 417.582 567.456 416.707 567.697 415.879L579.948 374.416L561.308 335.272C560.438 333.44 560.225 331.364 560.705 329.393C561.128 327.662 562.065 326.101 563.393 324.915C564.722 323.728 566.379 322.972 568.145 322.747C569.912 322.521 571.706 322.836 573.29 323.65C574.874 324.465 576.173 325.74 577.018 327.309L602.312 368.351C603.34 370.016 603.943 371.907 604.069 373.86C604.194 375.812 603.838 377.766 603.033 379.549L582.423 425.214C582.083 425.969 581.561 426.627 580.904 427.13C580.246 427.633 579.474 427.964 578.656 428.094C578.393 428.136 578.127 428.157 577.86 428.158Z" fill="#6C63FF"/>
<path id="Vector_39" d="M404.738 348.953C405.917 349.83 407.275 350.438 408.715 350.734C410.155 351.03 411.642 351.006 413.072 350.665C414.502 350.324 415.84 349.674 416.991 348.76C418.143 347.846 419.08 346.69 419.736 345.375L455.174 349.971L447.03 333.283L414.626 331.477C412.343 330.52 409.789 330.434 407.447 331.235C405.105 332.036 403.139 333.668 401.92 335.823C400.701 337.977 400.315 340.503 400.834 342.923C401.353 345.343 402.742 347.488 404.738 348.953Z" fill="#A0616A"/>
<path id="Vector_40" d="M482.849 358.067C482.232 358.067 481.616 358.024 481.005 357.939L425.254 350.207C424.343 350.082 423.477 349.732 422.735 349.189C421.993 348.646 421.398 347.926 421.003 347.096C420.875 346.828 420.769 346.551 420.685 346.267C420.469 345.528 420.409 344.753 420.508 343.991C420.607 343.228 420.863 342.494 421.26 341.835L425.873 334.186C426.37 333.369 427.068 332.692 427.9 332.222C428.733 331.752 429.673 331.503 430.629 331.5H430.637L479.233 331.556L515.527 299.039C517.215 297.529 519.372 296.647 521.634 296.539C523.62 296.447 525.588 296.959 527.277 298.008C528.966 299.057 530.298 300.593 531.096 302.414C531.895 304.235 532.122 306.256 531.749 308.209C531.376 310.162 530.42 311.956 529.006 313.355L492.791 353.633C491.538 355.028 490.005 356.144 488.292 356.908C486.579 357.672 484.725 358.067 482.849 358.067Z" fill="#6C63FF"/>
<path id="Vector_41" d="M531.072 284.028C533.316 278.833 535.215 271.915 530.91 268.243C528.413 266.113 524.817 266.108 521.545 265.843C512.328 265.096 502.839 260.855 498.334 252.78C493.829 244.704 496.345 232.695 504.844 229.052C510.574 226.596 517.142 228.269 523.139 229.969L541.145 235.075C546.495 236.592 552.112 238.265 555.964 242.277C562.106 248.674 561.647 259.488 556.768 266.895C551.889 274.301 544.542 282.025 536.131 284.837L531.072 284.028Z" fill="#2F2E41"/>
<path id="Vector_42" d="M523.229 607.3H510.969L505.137 560.012L523.231 560.013L523.229 607.3Z" fill="#A0616A"/>
<path id="Vector_43" d="M502.212 603.797H525.856V618.684H487.325C487.325 616.729 487.71 614.793 488.458 612.987C489.206 611.181 490.303 609.539 491.685 608.157C493.068 606.775 494.709 605.678 496.515 604.93C498.321 604.182 500.257 603.797 502.212 603.797Z" fill="#2F2E41"/>
<path id="Vector_44" d="M612.184 593.413L601.033 598.506L576.079 557.917L592.538 550.399L612.184 593.413Z" fill="#A0616A"/>
<path id="Vector_45" d="M591.612 598.958L613.118 589.135L619.303 602.676L584.256 618.685C583.443 616.906 582.989 614.985 582.919 613.032C582.85 611.078 583.165 609.13 583.848 607.298C584.531 605.466 585.568 603.787 586.901 602.356C588.233 600.925 589.834 599.771 591.612 598.958Z" fill="#2F2E41"/>
<path id="Vector_46" d="M522.448 594.831H510.736C509.6 594.827 508.507 594.396 507.675 593.622C506.843 592.849 506.334 591.79 506.247 590.658L499.86 420.099C499.813 419.445 499.909 418.789 500.141 418.177C500.374 417.564 500.737 417.009 501.206 416.552C501.675 416.094 502.239 415.745 502.857 415.527C503.475 415.31 504.133 415.231 504.786 415.294L572.521 422.488C573.618 422.595 574.638 423.102 575.387 423.912C576.136 424.722 576.562 425.778 576.583 426.881L578.002 502.117C578.01 502.525 578.089 502.929 578.236 503.31L606.021 575.363C606.236 575.919 606.338 576.513 606.321 577.109C606.304 577.706 606.168 578.293 605.922 578.836C605.677 579.38 605.325 579.869 604.888 580.275C604.451 580.682 603.938 580.997 603.378 581.203L591.51 585.576C590.479 585.956 589.345 585.946 588.321 585.547C587.298 585.148 586.455 584.389 585.952 583.412L551.82 517.043C551.634 516.682 551.498 516.298 551.416 515.901L545.585 487.807C545.416 486.992 544.962 486.265 544.305 485.754C543.648 485.244 542.831 484.984 542 485.022C541.168 485.06 540.378 485.392 539.77 485.96C539.162 486.527 538.776 487.293 538.681 488.119L526.918 590.843C526.793 591.941 526.268 592.954 525.443 593.69C524.619 594.425 523.552 594.832 522.448 594.831Z" fill="#2F2E41"/>
<path id="Vector_47" d="M528.279 286.739C541.844 286.739 552.84 275.743 552.84 262.178C552.84 248.613 541.844 237.617 528.279 237.617C514.715 237.617 503.718 248.613 503.718 262.178C503.718 275.743 514.715 286.739 528.279 286.739Z" fill="#A0616A"/>
<path id="Vector_48" d="M545.123 435.694C528.467 435.511 512.208 430.586 498.25 421.496L498.011 421.331L498.036 421.042L507.431 311.626C507.755 307.913 509.412 304.444 512.095 301.859C514.779 299.274 518.308 297.748 522.03 297.564C534.206 297.004 550.561 297.71 559.316 304.231C572.546 314.085 578.923 328.924 576.811 344.943C572.431 378.162 577.393 422.972 577.973 427.972L578.015 428.333L577.686 428.484C567.486 433.229 556.373 435.69 545.123 435.694Z" fill="#6C63FF"/>
<path id="Vector_49" d="M577.86 428.158C577.168 428.156 576.483 428.012 575.849 427.733C575.216 427.453 574.647 427.046 574.179 426.536L568.807 420.674C568.226 420.037 567.819 419.262 567.625 418.422C567.431 417.582 567.456 416.707 567.697 415.879L579.948 374.416L561.308 335.272C560.438 333.44 560.225 331.364 560.705 329.393C561.128 327.662 562.065 326.101 563.393 324.915C564.722 323.728 566.379 322.972 568.145 322.747C569.912 322.521 571.706 322.836 573.29 323.65C574.874 324.465 576.173 325.74 577.018 327.309L602.312 368.351C603.34 370.016 603.943 371.907 604.069 373.86C604.194 375.812 603.838 377.766 603.033 379.549L582.423 425.214C582.083 425.969 581.561 426.627 580.904 427.13C580.246 427.633 579.474 427.964 578.656 428.094C578.393 428.136 578.127 428.157 577.86 428.158Z" fill="#6C63FF"/>
<path id="Vector_50" d="M404.738 348.953C405.917 349.83 407.275 350.438 408.715 350.734C410.155 351.03 411.642 351.006 413.072 350.665C414.502 350.324 415.84 349.674 416.991 348.76C418.143 347.846 419.08 346.69 419.736 345.375L455.174 349.971L447.03 333.283L414.626 331.477C412.343 330.52 409.789 330.434 407.447 331.235C405.105 332.036 403.139 333.668 401.92 335.823C400.701 337.977 400.315 340.503 400.834 342.923C401.353 345.343 402.742 347.488 404.738 348.953Z" fill="#A0616A"/>
<path id="Vector_51" d="M482.849 358.067C482.232 358.067 481.616 358.024 481.005 357.939L425.254 350.207C424.343 350.082 423.477 349.732 422.735 349.189C421.993 348.646 421.398 347.926 421.003 347.096C420.875 346.828 420.769 346.551 420.685 346.267C420.469 345.528 420.409 344.753 420.508 343.991C420.607 343.228 420.863 342.494 421.26 341.835L425.873 334.186C426.37 333.369 427.068 332.692 427.9 332.222C428.733 331.752 429.673 331.503 430.629 331.5H430.637L479.233 331.556L515.527 299.039C517.215 297.529 519.372 296.647 521.634 296.539C523.62 296.447 525.588 296.959 527.277 298.008C528.966 299.057 530.298 300.593 531.096 302.414C531.895 304.235 532.122 306.256 531.749 308.209C531.376 310.162 530.42 311.956 529.006 313.355L492.791 353.633C491.538 355.028 490.005 356.144 488.292 356.908C486.579 357.672 484.725 358.067 482.849 358.067Z" fill="#6C63FF"/>
<path id="Vector_52" d="M531.072 284.028C533.316 278.833 535.215 271.915 530.91 268.243C528.413 266.113 524.817 266.108 521.545 265.843C512.328 265.096 502.839 260.855 498.334 252.78C493.829 244.704 496.345 232.695 504.844 229.052C510.574 226.596 517.142 228.269 523.139 229.969L541.145 235.075C546.495 236.592 552.112 238.265 555.964 242.277C562.106 248.674 561.647 259.488 556.768 266.895C551.889 274.301 544.542 282.025 536.131 284.837L531.072 284.028Z" fill="#2F2E41"/>
</g>
<path id="bottom_line" d="M779.485 619.01H41.1907C41.034 619.01 40.8788 618.98 40.734 618.92C40.5891 618.86 40.4575 618.773 40.3465 618.662C40.2356 618.551 40.1476 618.42 40.0875 618.275C40.0275 618.131 39.9966 617.976 39.9966 617.819C39.9966 617.662 40.0275 617.507 40.0875 617.362C40.1476 617.218 40.2356 617.086 40.3465 616.976C40.4575 616.865 40.5891 616.777 40.734 616.718C40.8788 616.658 41.034 616.628 41.1907 616.628H779.485C779.641 616.628 779.797 616.658 779.941 616.718C780.086 616.777 780.218 616.865 780.329 616.976C780.44 617.086 780.528 617.218 780.588 617.362C780.648 617.507 780.679 617.662 780.679 617.819C780.679 617.976 780.648 618.131 780.588 618.275C780.528 618.42 780.44 618.551 780.329 618.662C780.218 618.773 780.086 618.86 779.941 618.92C779.797 618.98 779.641 619.01 779.485 619.01Z" fill="#3F3D56"/>
</g>
</svg>
