<svg width="171" height="81" viewBox="0 0 171 81" fill="none" xmlns="http://www.w3.org/2000/svg">
    <path d="M67.236 81V67.118H62.638V65.6H73.682V67.118H69.084V81H67.236ZM75.9385 81V65.6H77.7865V81H75.9385ZM81.0518 81V65.6H83.2078L88.7078 76.336L94.2298 65.6H96.4078V81H94.5598V68.9L89.4118 78.8H88.0258L82.8998 68.922V81H81.0518ZM99.6573 81V65.6H109.183V67.118H101.505V72.486H108.523V73.982H101.505V79.482H109.183V81H99.6573Z" fill="#1F1F1F"/>
    <path d="M43.12 47.72C41.6 49.0533 40.2267 50.12 39 50.92C37.7733 51.7467 36.84 52.16 36.2 52.16C35.6933 52.16 35.44 51.9333 35.44 51.48C35.44 51.1867 35.6267 50.8933 36 50.6C36.4 50.3067 36.92 50.0133 37.56 49.72C38.2 49.4533 38.8533 49.1867 39.52 48.92C40.2133 48.6533 40.84 48.3867 41.4 48.12C43.3467 47.24 45.3467 46.1333 47.4 44.8C49.48 43.44 51.5067 41.92 53.48 40.24C55.48 38.5333 57.3467 36.72 59.08 34.8C60.84 32.88 62.3867 30.92 63.72 28.92C65.08 26.8933 66.1333 24.8933 66.88 22.92C67.6533 20.9467 68.04 19.0533 68.04 17.24C68.04 16.6 67.92 15.9867 67.68 15.4C67.4667 14.7867 67.2 14.3467 66.88 14.08L67.12 13.88C67.5467 14.2267 67.8667 14.7467 68.08 15.44C68.32 16.1333 68.44 16.8667 68.44 17.64C68.44 19.4267 68.04 21.3333 67.24 23.36C66.44 25.36 65.3467 27.3867 63.96 29.44C62.5733 31.4667 60.9733 33.4667 59.16 35.44C57.3733 37.3867 55.4667 39.2133 53.44 40.92C51.44 42.6267 49.4133 44.1333 47.36 45.44C45.3067 46.7467 43.3467 47.7733 41.48 48.52C41.08 48.6533 40.5867 48.8267 40 49.04C39.4133 49.28 38.8267 49.52 38.24 49.76C37.68 50.0267 37.2 50.2933 36.8 50.56C36.4 50.8267 36.2 51.0667 36.2 51.28C36.2 51.4667 36.3467 51.56 36.64 51.56C37.2267 51.56 37.9867 51.2267 38.92 50.56C39.88 49.8933 40.8933 49.04 41.96 48C43.4533 46.48 44.8133 44.76 46.04 42.84C47.2667 40.8933 48.3333 38.8533 49.24 36.72C50.1467 34.5867 50.88 32.48 51.44 30.4C52.0267 28.32 52.44 26.3867 52.68 24.6C53.0267 21.6667 53.4933 19.4133 54.08 17.84C54.6933 16.2667 55.4 15.48 56.2 15.48C57.0267 15.48 57.44 16.32 57.44 18C57.44 19.0667 57.2267 20.2133 56.8 21.44C56.4 22.6667 55.8533 23.92 55.16 25.2C54.4933 26.4533 53.7467 27.68 52.92 28.88C52.12 30.08 51.32 31.1867 50.52 32.2C49.72 33.2133 49 34.0667 48.36 34.76C47.08 36.12 45.6533 37.48 44.08 38.84C42.5333 40.2 40.9067 41.5067 39.2 42.76C37.52 43.9867 35.8267 45.0933 34.12 46.08C32.4133 47.0667 30.76 47.88 29.16 48.52C28.76 48.6533 28.2667 48.8267 27.68 49.04C27.0933 49.28 26.5067 49.52 25.92 49.76C25.36 50.0267 24.88 50.2933 24.48 50.56C24.08 50.8267 23.88 51.0667 23.88 51.28C23.88 51.4667 24.0267 51.56 24.32 51.56C25.0667 51.56 26.08 51.0533 27.36 50.04C28.64 49.0267 30.0133 47.64 31.48 45.88C32.9467 44.12 34.3467 42.12 35.68 39.88C37.1733 37.5867 38.4133 35.1467 39.4 32.56C40.4133 29.9467 40.92 27.3867 40.92 24.88C40.92 22.48 40.4267 20.28 39.44 18.28C38.48 16.28 37.1067 14.56 35.32 13.12C33.56 11.6533 31.4533 10.52 29 9.72C26.5467 8.92 23.84 8.52 20.88 8.52C18.2933 8.52 15.8667 8.85333 13.6 9.52C11.36 10.1867 9.4 11.12 7.72 12.32C6.06667 13.52 4.77333 14.92 3.84 16.52C2.90667 18.0933 2.44 19.8133 2.44 21.68C2.44 23.7867 3.04 25.6533 4.24 27.28C5.46667 28.9067 7.14667 30.1867 9.28 31.12C11.4133 32.0267 13.8667 32.48 16.64 32.48C18.6667 32.48 20.5067 32.2133 22.16 31.68C23.8133 31.1467 25.1333 30.44 26.12 29.56C27.1333 28.6533 27.64 27.6667 27.64 26.6C27.64 25.4533 27.0133 24.5333 25.76 23.84C24.5333 23.12 22.9333 22.76 20.96 22.76C19.3333 22.76 17.8 22.9867 16.36 23.44C14.9467 23.8667 13.6933 24.48 12.6 25.28C11.5067 26.0533 10.6533 26.9467 10.04 27.96C9.42667 28.9733 9.12 30.0667 9.12 31.24C9.12 32.6 9.56 33.8 10.44 34.84C11.3467 35.8533 12.6 36.6533 14.2 37.24C15.8 37.8267 17.64 38.12 19.72 38.12C22.2267 38.12 24.4667 37.8133 26.44 37.2C28.44 36.5867 30.1333 35.7467 31.52 34.68C32.9067 33.6133 33.96 32.4 34.68 31.04C35.4267 29.68 35.8 28.2533 35.8 26.76C35.8 24.68 35.1333 22.84 33.8 21.24C32.4667 19.64 30.6133 18.3867 28.24 17.48C25.8933 16.5467 23.2 16.08 20.16 16.08C17.4933 16.08 15.0133 16.48 12.72 17.28C10.4267 18.0533 8.41333 19.1467 6.68 20.56C4.94667 21.9467 3.6 23.5733 2.64 25.44C1.68 27.3067 1.2 29.32 1.2 31.48C1.2 34.2 1.97333 36.5867 3.52 38.64C5.09333 40.6667 7.28 42.24 10.08 43.36C12.9067 44.48 16.1733 45.04 19.88 45.04C22.2267 45.04 24.3867 44.7867 26.36 44.28C28.3333 43.7467 30.0267 43.0267 31.44 42.12C32.8533 41.1867 33.8667 40.1067 34.48 38.88L34.84 38.96C34.2 40.24 33.1467 41.36 31.68 42.32C30.2133 43.2533 28.4667 44 26.44 44.56C24.44 45.0933 22.2533 45.36 19.88 45.36C16.0933 45.36 12.7733 44.7867 9.92 43.64C7.06667 42.4667 4.84 40.84 3.24 38.76C1.66667 36.68 0.88 34.2533 0.88 31.48C0.88 29.2667 1.36 27.2133 2.32 25.32C3.30667 23.4 4.68 21.7333 6.44 20.32C8.2 18.88 10.24 17.76 12.56 16.96C14.9067 16.16 17.44 15.76 20.16 15.76C23.3333 15.76 26.12 16.2267 28.52 17.16C30.92 18.0667 32.7867 19.3467 34.12 21C35.4533 22.6533 36.12 24.5733 36.12 26.76C36.12 28.28 35.76 29.7467 35.04 31.16C34.32 32.5733 33.2533 33.8267 31.84 34.92C30.4533 36.0133 28.7333 36.88 26.68 37.52C24.6533 38.16 22.3333 38.48 19.72 38.48C17.5333 38.48 15.6133 38.1733 13.96 37.56C12.3333 36.9467 11.0667 36.0933 10.16 35C9.25333 33.88 8.8 32.5867 8.8 31.12C8.8 29.92 9.10667 28.8 9.72 27.76C10.36 26.6933 11.24 25.7733 12.36 25C13.48 24.2 14.7733 23.5733 16.24 23.12C17.7067 22.6667 19.28 22.44 20.96 22.44C23.0667 22.44 24.76 22.8267 26.04 23.6C27.3467 24.3733 28 25.3733 28 26.6C28 27.72 27.48 28.76 26.44 29.72C25.4267 30.6533 24.0533 31.4 22.32 31.96C20.6133 32.52 18.7067 32.8 16.6 32.8C13.7733 32.8 11.2667 32.3333 9.08 31.4C6.89333 30.44 5.18667 29.1333 3.96 27.48C2.73333 25.8 2.12 23.8667 2.12 21.68C2.12 19.76 2.6 17.9867 3.56 16.36C4.52 14.7333 5.85333 13.3067 7.56 12.08C9.26667 10.8533 11.2667 9.90667 13.56 9.24C15.8533 8.54667 18.3333 8.2 21 8.2C24.36 8.2 27.4133 8.65333 30.16 9.56C32.9067 10.44 35.28 11.7067 37.28 13.36C39.28 14.9867 40.8267 16.9467 41.92 19.24C43.0133 21.5067 43.56 24.0133 43.56 26.76C43.56 28.6533 43.08 30.8 42.12 33.2C41.1867 35.5733 39.8133 37.8533 38 40.04C37.1467 41.1333 36.1867 42.2533 35.12 43.4C34.08 44.5467 33.0133 45.64 31.92 46.68C30.8267 47.72 29.76 48.6533 28.72 49.48C27.68 50.3067 26.7333 50.96 25.88 51.44C25.0533 51.92 24.3867 52.16 23.88 52.16C23.3733 52.16 23.12 51.9333 23.12 51.48C23.12 51.1867 23.3067 50.8933 23.68 50.6C24.08 50.3067 24.6 50.0133 25.24 49.72C25.88 49.4533 26.5333 49.1733 27.2 48.88C27.8933 48.6133 28.52 48.36 29.08 48.12C32.5733 46.5733 35.92 44.6133 39.12 42.24C42.3467 39.84 45.2533 37.2533 47.84 34.48C49.7067 32.4267 51.32 30.3467 52.68 28.24C54.0667 26.1333 55.1467 24.16 55.92 22.32C56.6933 20.4533 57.08 18.88 57.08 17.6C57.08 16.4 56.7867 15.8 56.2 15.8C55.8 15.8 55.4533 16.0533 55.16 16.56C54.8667 17.0667 54.5867 18 54.32 19.36C54.08 20.72 53.8 22.6933 53.48 25.28C53.24 27.0667 52.8933 28.9467 52.44 30.92C51.9867 32.8933 51.36 34.88 50.56 36.88C49.7867 38.8533 48.7867 40.7733 47.56 42.64C46.36 44.48 44.88 46.1733 43.12 47.72Z" fill="#1F1F1F"/>
    <path d="M73.5234 49.3906C72.0521 49.3906 70.7174 49.1432 69.5195 48.6484C68.3346 48.1406 67.3125 47.431 66.4531 46.5195C65.6068 45.6081 64.9557 44.5273 64.5 43.2773C64.0443 42.0273 63.8164 40.6602 63.8164 39.1758V38.3555C63.8164 36.6367 64.0703 35.1068 64.5781 33.7656C65.0859 32.4115 65.776 31.2656 66.6484 30.3281C67.5208 29.3906 68.5104 28.681 69.6172 28.1992C70.724 27.7174 71.8698 27.4766 73.0547 27.4766C74.5651 27.4766 75.8672 27.737 76.9609 28.2578C78.0677 28.7786 78.9727 29.5078 79.6758 30.4453C80.3789 31.3698 80.8997 32.4635 81.2383 33.7266C81.5768 34.9766 81.7461 36.3438 81.7461 37.8281V39.4492H65.9648V36.5H78.1328V36.2266C78.0807 35.2891 77.8854 34.3776 77.5469 33.4922C77.2214 32.6068 76.7005 31.8776 75.9844 31.3047C75.2682 30.7318 74.2917 30.4453 73.0547 30.4453C72.2344 30.4453 71.4792 30.6211 70.7891 30.9727C70.099 31.3112 69.5065 31.819 69.0117 32.4961C68.5169 33.1732 68.1328 34 67.8594 34.9766C67.5859 35.9531 67.4492 37.0794 67.4492 38.3555V39.1758C67.4492 40.1784 67.5859 41.1224 67.8594 42.0078C68.1458 42.8802 68.556 43.6484 69.0898 44.3125C69.6367 44.9766 70.2943 45.4974 71.0625 45.875C71.8438 46.2526 72.7292 46.4414 73.7188 46.4414C74.9948 46.4414 76.0755 46.181 76.9609 45.6602C77.8464 45.1393 78.6211 44.4427 79.2852 43.5703L81.4727 45.3086C81.0169 45.9987 80.4375 46.6562 79.7344 47.2812C79.0312 47.9062 78.1654 48.4141 77.1367 48.8047C76.1211 49.1953 74.9167 49.3906 73.5234 49.3906ZM94.207 49H88.2695L88.3086 45.9336H94.207C96.2383 45.9336 97.931 45.5104 99.2852 44.6641C100.639 43.8047 101.655 42.6068 102.332 41.0703C103.022 39.5208 103.367 37.7109 103.367 35.6406V33.9023C103.367 32.2747 103.172 30.8294 102.781 29.5664C102.391 28.2904 101.818 27.2161 101.062 26.3438C100.307 25.4583 99.3828 24.7878 98.2891 24.332C97.2083 23.8763 95.9648 23.6484 94.5586 23.6484H88.1523V20.5625H94.5586C96.4206 20.5625 98.1198 20.875 99.6562 21.5C101.193 22.112 102.514 23.0039 103.621 24.1758C104.741 25.3346 105.6 26.7409 106.199 28.3945C106.798 30.0352 107.098 31.8841 107.098 33.9414V35.6406C107.098 37.6979 106.798 39.5534 106.199 41.207C105.6 42.8477 104.734 44.2474 103.602 45.4062C102.482 46.5651 101.128 47.457 99.5391 48.082C97.9635 48.694 96.1862 49 94.207 49ZM90.2812 20.5625V49H86.5117V20.5625H90.2812Z" fill="#1F1F1F"/>
    <path d="M103.697 54H99.541L99.5684 51.8535H103.697C105.119 51.8535 106.304 51.5573 107.252 50.9648C108.2 50.3633 108.911 49.5247 109.385 48.4492C109.868 47.3646 110.109 46.0977 110.109 44.6484V43.4316C110.109 42.2923 109.973 41.2806 109.699 40.3965C109.426 39.5033 109.025 38.7513 108.496 38.1406C107.967 37.5208 107.32 37.0514 106.555 36.7324C105.798 36.4134 104.928 36.2539 103.943 36.2539H99.459V34.0938H103.943C105.247 34.0938 106.436 34.3125 107.512 34.75C108.587 35.1784 109.512 35.8027 110.287 36.623C111.071 37.4342 111.673 38.4186 112.092 39.5762C112.511 40.7246 112.721 42.0189 112.721 43.459V44.6484C112.721 46.0885 112.511 47.3874 112.092 48.5449C111.673 49.6934 111.066 50.6732 110.273 51.4844C109.49 52.2956 108.542 52.9199 107.43 53.3574C106.327 53.7858 105.083 54 103.697 54ZM100.949 34.0938V54H98.3105V34.0938H100.949Z" fill="#1F1F1F"/>
    <path d="M122.08 22.6V49H117.4V22.6H122.08Z" fill="#1F1F1F"/>
    <path d="M167.316 34.8398V45.25C166.965 45.7708 166.405 46.3568 165.637 47.0078C164.868 47.6458 163.807 48.2057 162.453 48.6875C161.112 49.1562 159.38 49.3906 157.258 49.3906C155.526 49.3906 153.931 49.0911 152.473 48.4922C151.027 47.8802 149.771 46.9948 148.703 45.8359C147.648 44.6641 146.828 43.2448 146.242 41.5781C145.669 39.8984 145.383 37.9974 145.383 35.875V33.668C145.383 31.5456 145.63 29.651 146.125 27.9844C146.633 26.3177 147.375 24.9049 148.352 23.7461C149.328 22.5742 150.526 21.6888 151.945 21.0898C153.365 20.4779 154.992 20.1719 156.828 20.1719C159.003 20.1719 160.819 20.5495 162.277 21.3047C163.749 22.0469 164.895 23.0755 165.715 24.3906C166.548 25.7057 167.082 27.2031 167.316 28.8828H163.547C163.378 27.8542 163.039 26.9167 162.531 26.0703C162.036 25.224 161.327 24.5469 160.402 24.0391C159.478 23.5182 158.286 23.2578 156.828 23.2578C155.513 23.2578 154.374 23.4987 153.41 23.9805C152.447 24.4622 151.652 25.1523 151.027 26.0508C150.402 26.9492 149.934 28.0365 149.621 29.3125C149.322 30.5885 149.172 32.0273 149.172 33.6289V35.875C149.172 37.5156 149.361 38.9805 149.738 40.2695C150.129 41.5586 150.682 42.6589 151.398 43.5703C152.115 44.4688 152.967 45.1523 153.957 45.6211C154.96 46.0898 156.066 46.3242 157.277 46.3242C158.618 46.3242 159.706 46.2135 160.539 45.9922C161.372 45.7578 162.023 45.4844 162.492 45.1719C162.961 44.8464 163.319 44.5404 163.566 44.2539V37.8867H156.984V34.8398H167.316Z" fill="#1F1F1F"/>
    <path d="M138.732 41L131.312 28.344V41H128.68V22.52H131.172L138.592 35.176V22.52H141.224V41H138.732Z" fill="#1F1F1F"/>
    <path d="M128 44H141.5" stroke="#1F1F1F"/>
</svg>
